<svg width="1080" height="1080" viewBox="0 0 1080 1080" fill="none" xmlns="http://www.w3.org/2000/svg">
<rect width="1080" height="1080" fill="#527AC2"/>
<path d="M489.674 203.039C487.89 203.758 473.978 207.354 459.351 210.589C426.888 218.139 373.734 242.587 343.768 264.158C299.533 296.155 254.94 351.162 232.823 401.495C223.904 421.987 209.635 468.366 209.635 477.354C209.635 479.511 221.05 473.758 235.32 464.051C296.322 421.628 374.804 406.887 447.222 424.504C475.048 430.975 514.646 447.154 518.57 453.625C519.283 455.063 514.646 462.973 507.511 470.523L495.025 484.903L468.27 474.477C383.723 441.401 294.182 459.737 228.542 523.372L202.5 548.539L204.64 566.515C216.413 667.54 257.438 746.634 329.142 804.517C375.518 841.907 457.568 877.5 498.593 877.5C535.337 877.5 593.842 801.282 607.398 735.489C623.094 659.99 601.69 585.569 547.109 525.889L532.839 510.429L585.637 457.22C632.013 410.123 638.077 403.292 635.937 395.023C633.083 383.878 642.001 361.588 652.703 352.6C662.692 344.331 680.886 340.017 693.728 343.252C698.723 344.69 708.355 351.162 715.133 357.993C724.765 367.7 726.905 372.373 726.905 385.316C726.905 405.449 720.84 416.595 705.501 427.38C696.582 433.492 689.447 435.649 679.816 434.571C666.973 433.492 664.833 434.93 628.089 471.961L589.918 510.429L605.257 532.001C650.206 597.074 664.833 684.797 643.072 760.656C632.013 799.124 613.462 835.077 592.058 859.524C577.788 876.062 577.075 877.5 584.923 877.5C604.901 877.5 656.628 861.322 689.447 845.143C783.27 798.765 848.909 714.278 872.097 610.017C879.589 574.784 879.232 502.52 871.384 467.646C843.202 345.05 759.368 254.091 637.72 214.184C610.608 205.196 600.976 204.118 550.32 203.039C518.927 202.32 491.815 202.32 489.674 203.039ZM379.799 546.741C413.332 567.234 409.408 620.083 373.734 634.464C355.184 642.014 350.546 641.654 332.709 633.026C315.229 624.397 305.954 609.657 305.954 589.883C305.954 560.762 326.288 539.551 354.114 539.551C361.962 539.551 373.378 542.786 379.799 546.741ZM511.792 679.764C545.325 700.256 540.688 749.87 503.944 766.408C483.253 775.756 464.702 771.441 449.363 753.825C429.385 730.816 431.169 703.852 454.357 683.359C464.346 674.73 470.054 672.573 483.61 672.573C493.955 672.573 504.657 675.449 511.792 679.764Z" fill="white"/>
</svg>
